<svg width="14" height="14" viewBox="0 0 14 14" fill="none" xmlns="http://www.w3.org/2000/svg">
<path fill-rule="evenodd" clip-rule="evenodd" d="M8.13552 8.13552C9.57502 6.69603 9.57502 4.36214 8.13552 2.92265C6.69603 1.48315 4.36214 1.48315 2.92265 2.92265C1.48315 4.36214 1.48315 6.69603 2.92265 8.13552C4.36214 9.57502 6.69603 9.57502 8.13552 8.13552ZM9.43874 9.43874C11.598 7.2795 11.598 3.77867 9.43874 1.61943C7.2795 -0.539811 3.77867 -0.539811 1.61943 1.61943C-0.539811 3.77867 -0.53981 7.2795 1.61943 9.43874C3.77867 11.598 7.2795 11.598 9.43874 9.43874Z" fill="#999999"/>
<path fill-rule="evenodd" clip-rule="evenodd" d="M12.6968 14L8.13552 9.43874L9.43874 8.13552L14 12.6968L12.6968 14Z" fill="#999999"/>
</svg>
